<mxfile host="app.diagrams.net" modified="2024-06-18T01:24:16.445Z" agent="Mozilla/5.0 (Macintosh; Intel Mac OS X 10_15_7) AppleWebKit/537.36 (KHTML, like Gecko) Chrome/125.0.0.0 Safari/537.36" etag="77LcyiIDIXOo3UnfT-Zr" version="24.4.13" type="device">
  <diagram name="Page-1" id="gIlQjssTkETCVFCB89ty">
    <mxGraphModel dx="1140" dy="723" grid="1" gridSize="10" guides="1" tooltips="1" connect="1" arrows="1" fold="1" page="1" pageScale="1" pageWidth="1100" pageHeight="850" math="0" shadow="0">
      <root>
        <mxCell id="0" />
        <mxCell id="1" parent="0" />
        <mxCell id="6WR1JfoL7VWsUAwsL9C9-18" value="&lt;b&gt;Scripts&lt;/b&gt;" style="swimlane;fontStyle=0;childLayout=stackLayout;horizontal=1;startSize=25;horizontalStack=0;resizeParent=1;resizeParentMax=0;resizeLast=0;collapsible=1;marginBottom=0;whiteSpace=wrap;html=1;fillColor=#bac8d3;strokeColor=#23445d;" parent="1" vertex="1">
          <mxGeometry x="130" y="125" width="340" height="685" as="geometry">
            <mxRectangle x="130" y="125" width="80" height="30" as="alternateBounds" />
          </mxGeometry>
        </mxCell>
        <mxCell id="6WR1JfoL7VWsUAwsL9C9-19" value="Step1_Raw_Data_Prep.sh" style="text;strokeColor=none;fillColor=#7EA6E0;align=left;verticalAlign=middle;spacingLeft=4;spacingRight=4;overflow=hidden;points=[[0,0.5],[1,0.5]];portConstraint=eastwest;rotatable=0;whiteSpace=wrap;html=1;fontStyle=1" parent="6WR1JfoL7VWsUAwsL9C9-18" vertex="1">
          <mxGeometry y="25" width="340" height="30" as="geometry" />
        </mxCell>
        <mxCell id="6WR1JfoL7VWsUAwsL9C9-20" value="Step2_GenoPheno_Prep.sh" style="text;strokeColor=none;fillColor=#7EA6E0;align=left;verticalAlign=middle;spacingLeft=4;spacingRight=4;overflow=hidden;points=[[0,0.5],[1,0.5]];portConstraint=eastwest;rotatable=0;whiteSpace=wrap;html=1;fontStyle=1" parent="6WR1JfoL7VWsUAwsL9C9-18" vertex="1">
          <mxGeometry y="55" width="340" height="30" as="geometry" />
        </mxCell>
        <mxCell id="6WR1JfoL7VWsUAwsL9C9-21" value="Step2-1_GenotypeRef_Prep.R" style="text;strokeColor=none;fillColor=#D4E1F5;align=left;verticalAlign=middle;spacingLeft=4;spacingRight=4;overflow=hidden;points=[[0,0.5],[1,0.5]];portConstraint=eastwest;rotatable=0;whiteSpace=wrap;html=1;" parent="6WR1JfoL7VWsUAwsL9C9-18" vertex="1">
          <mxGeometry y="85" width="340" height="30" as="geometry" />
        </mxCell>
        <mxCell id="6WR1JfoL7VWsUAwsL9C9-24" value="Step3_Pre-imputation_Within-Batch_QC.sh" style="text;strokeColor=none;fillColor=#7EA6E0;align=left;verticalAlign=middle;spacingLeft=4;spacingRight=4;overflow=hidden;points=[[0,0.5],[1,0.5]];portConstraint=eastwest;rotatable=0;whiteSpace=wrap;html=1;fontStyle=1" parent="6WR1JfoL7VWsUAwsL9C9-18" vertex="1">
          <mxGeometry y="115" width="340" height="30" as="geometry" />
        </mxCell>
        <mxCell id="6WR1JfoL7VWsUAwsL9C9-23" value="Step3-1_Create_Annotation_DataFrame_Batch.R" style="text;strokeColor=none;fillColor=#D4E1F5;align=left;verticalAlign=middle;spacingLeft=4;spacingRight=4;overflow=hidden;points=[[0,0.5],[1,0.5]];portConstraint=eastwest;rotatable=0;whiteSpace=wrap;html=1;" parent="6WR1JfoL7VWsUAwsL9C9-18" vertex="1">
          <mxGeometry y="145" width="340" height="30" as="geometry" />
        </mxCell>
        <mxCell id="6WR1JfoL7VWsUAwsL9C9-25" value="Step3-2_CreateDataFile_Batch.R" style="text;strokeColor=none;fillColor=#D4E1F5;align=left;verticalAlign=middle;spacingLeft=4;spacingRight=4;overflow=hidden;points=[[0,0.5],[1,0.5]];portConstraint=eastwest;rotatable=0;whiteSpace=wrap;html=1;" parent="6WR1JfoL7VWsUAwsL9C9-18" vertex="1">
          <mxGeometry y="175" width="340" height="30" as="geometry" />
        </mxCell>
        <mxCell id="6WR1JfoL7VWsUAwsL9C9-30" value="Step3-3_Within-Batch_QC.R" style="text;strokeColor=none;fillColor=#D4E1F5;align=left;verticalAlign=middle;spacingLeft=4;spacingRight=4;overflow=hidden;points=[[0,0.5],[1,0.5]];portConstraint=eastwest;rotatable=0;whiteSpace=wrap;html=1;" parent="6WR1JfoL7VWsUAwsL9C9-18" vertex="1">
          <mxGeometry y="205" width="340" height="30" as="geometry" />
        </mxCell>
        <mxCell id="6WR1JfoL7VWsUAwsL9C9-85" value="*supp_anomDetectLOH_modified.R" style="text;strokeColor=none;fillColor=none;align=left;verticalAlign=middle;spacingLeft=4;spacingRight=4;overflow=hidden;points=[[0,0.5],[1,0.5]];portConstraint=eastwest;rotatable=0;whiteSpace=wrap;html=1;" parent="6WR1JfoL7VWsUAwsL9C9-18" vertex="1">
          <mxGeometry y="235" width="340" height="30" as="geometry" />
        </mxCell>
        <mxCell id="6WR1JfoL7VWsUAwsL9C9-83" value="*supp_anomIdentifyLowQuality_modified.R" style="text;strokeColor=none;fillColor=none;align=left;verticalAlign=middle;spacingLeft=4;spacingRight=4;overflow=hidden;points=[[0,0.5],[1,0.5]];portConstraint=eastwest;rotatable=0;whiteSpace=wrap;html=1;" parent="6WR1JfoL7VWsUAwsL9C9-18" vertex="1">
          <mxGeometry y="265" width="340" height="30" as="geometry" />
        </mxCell>
        <mxCell id="6WR1JfoL7VWsUAwsL9C9-84" value="*supp_vcfWrite_modified.R" style="text;strokeColor=none;fillColor=none;align=left;verticalAlign=middle;spacingLeft=4;spacingRight=4;overflow=hidden;points=[[0,0.5],[1,0.5]];portConstraint=eastwest;rotatable=0;whiteSpace=wrap;html=1;" parent="6WR1JfoL7VWsUAwsL9C9-18" vertex="1">
          <mxGeometry y="295" width="340" height="30" as="geometry" />
        </mxCell>
        <mxCell id="6WR1JfoL7VWsUAwsL9C9-32" value="Step4_Batch_Impu_and_Cross-Batch_QC.sh" style="text;strokeColor=none;fillColor=#7EA6E0;align=left;verticalAlign=middle;spacingLeft=4;spacingRight=4;overflow=hidden;points=[[0,0.5],[1,0.5]];portConstraint=eastwest;rotatable=0;whiteSpace=wrap;html=1;fontStyle=1" parent="6WR1JfoL7VWsUAwsL9C9-18" vertex="1">
          <mxGeometry y="325" width="340" height="30" as="geometry" />
        </mxCell>
        <mxCell id="6WR1JfoL7VWsUAwsL9C9-33" value="Step4-1_Cross-batch_Check.R" style="text;strokeColor=none;fillColor=#D4E1F5;align=left;verticalAlign=middle;spacingLeft=4;spacingRight=4;overflow=hidden;points=[[0,0.5],[1,0.5]];portConstraint=eastwest;rotatable=0;whiteSpace=wrap;html=1;" parent="6WR1JfoL7VWsUAwsL9C9-18" vertex="1">
          <mxGeometry y="355" width="340" height="30" as="geometry" />
        </mxCell>
        <mxCell id="6WR1JfoL7VWsUAwsL9C9-34" value="&lt;b&gt;Step5_pseudoGWAS.sh&lt;/b&gt;" style="text;strokeColor=none;fillColor=#7EA6E0;align=left;verticalAlign=middle;spacingLeft=4;spacingRight=4;overflow=hidden;points=[[0,0.5],[1,0.5]];portConstraint=eastwest;rotatable=0;whiteSpace=wrap;html=1;" parent="6WR1JfoL7VWsUAwsL9C9-18" vertex="1">
          <mxGeometry y="385" width="340" height="30" as="geometry" />
        </mxCell>
        <mxCell id="6WR1JfoL7VWsUAwsL9C9-36" value="Step5-1_Cross-Batch_Case_Control_Prep.R" style="text;strokeColor=none;fillColor=#D4E1F5;align=left;verticalAlign=middle;spacingLeft=4;spacingRight=4;overflow=hidden;points=[[0,0.5],[1,0.5]];portConstraint=eastwest;rotatable=0;whiteSpace=wrap;html=1;" parent="6WR1JfoL7VWsUAwsL9C9-18" vertex="1">
          <mxGeometry y="415" width="340" height="30" as="geometry" />
        </mxCell>
        <mxCell id="6WR1JfoL7VWsUAwsL9C9-37" value="Step6_AllBatch_Imputation.sh" style="text;strokeColor=none;fillColor=#7EA6E0;align=left;verticalAlign=middle;spacingLeft=4;spacingRight=4;overflow=hidden;points=[[0,0.5],[1,0.5]];portConstraint=eastwest;rotatable=0;whiteSpace=wrap;html=1;fontStyle=1" parent="6WR1JfoL7VWsUAwsL9C9-18" vertex="1">
          <mxGeometry y="445" width="340" height="30" as="geometry" />
        </mxCell>
        <mxCell id="6WR1JfoL7VWsUAwsL9C9-35" value="Step7_Harmonization_QC.sh" style="text;strokeColor=none;fillColor=#7EA6E0;align=left;verticalAlign=middle;spacingLeft=4;spacingRight=4;overflow=hidden;points=[[0,0.5],[1,0.5]];portConstraint=eastwest;rotatable=0;whiteSpace=wrap;html=1;fontStyle=1" parent="6WR1JfoL7VWsUAwsL9C9-18" vertex="1">
          <mxGeometry y="475" width="340" height="30" as="geometry" />
        </mxCell>
        <mxCell id="6WR1JfoL7VWsUAwsL9C9-38" value="Step7-1_ID_Sex_Race_Update.R" style="text;strokeColor=none;fillColor=#D4E1F5;align=left;verticalAlign=middle;spacingLeft=4;spacingRight=4;overflow=hidden;points=[[0,0.5],[1,0.5]];portConstraint=eastwest;rotatable=0;whiteSpace=wrap;html=1;" parent="6WR1JfoL7VWsUAwsL9C9-18" vertex="1">
          <mxGeometry y="505" width="340" height="30" as="geometry" />
        </mxCell>
        <mxCell id="6WR1JfoL7VWsUAwsL9C9-39" value="Step7-2_Case-Control_Update.R" style="text;strokeColor=none;fillColor=#D4E1F5;align=left;verticalAlign=middle;spacingLeft=4;spacingRight=4;overflow=hidden;points=[[0,0.5],[1,0.5]];portConstraint=eastwest;rotatable=0;whiteSpace=wrap;html=1;" parent="6WR1JfoL7VWsUAwsL9C9-18" vertex="1">
          <mxGeometry y="535" width="340" height="30" as="geometry" />
        </mxCell>
        <mxCell id="6WR1JfoL7VWsUAwsL9C9-40" value="Step7-3_IBD_Removal.R" style="text;strokeColor=none;fillColor=#D4E1F5;align=left;verticalAlign=middle;spacingLeft=4;spacingRight=4;overflow=hidden;points=[[0,0.5],[1,0.5]];portConstraint=eastwest;rotatable=0;whiteSpace=wrap;html=1;" parent="6WR1JfoL7VWsUAwsL9C9-18" vertex="1">
          <mxGeometry y="565" width="340" height="30" as="geometry" />
        </mxCell>
        <mxCell id="6WR1JfoL7VWsUAwsL9C9-43" value="Step7-4_Pheno_Update.R" style="text;strokeColor=none;fillColor=#D4E1F5;align=left;verticalAlign=middle;spacingLeft=4;spacingRight=4;overflow=hidden;points=[[0,0.5],[1,0.5]];portConstraint=eastwest;rotatable=0;whiteSpace=wrap;html=1;fontStyle=0" parent="6WR1JfoL7VWsUAwsL9C9-18" vertex="1">
          <mxGeometry y="595" width="340" height="30" as="geometry" />
        </mxCell>
        <mxCell id="6WR1JfoL7VWsUAwsL9C9-41" value="Step7-5_PCA_Visualization.R" style="text;strokeColor=none;fillColor=#D4E1F5;align=left;verticalAlign=middle;spacingLeft=4;spacingRight=4;overflow=hidden;points=[[0,0.5],[1,0.5]];portConstraint=eastwest;rotatable=0;whiteSpace=wrap;html=1;" parent="6WR1JfoL7VWsUAwsL9C9-18" vertex="1">
          <mxGeometry y="625" width="340" height="30" as="geometry" />
        </mxCell>
        <mxCell id="6WR1JfoL7VWsUAwsL9C9-42" value="Step7-6_APOE_Update.R" style="text;strokeColor=none;fillColor=#D4E1F5;align=left;verticalAlign=middle;spacingLeft=4;spacingRight=4;overflow=hidden;points=[[0,0.5],[1,0.5]];portConstraint=eastwest;rotatable=0;whiteSpace=wrap;html=1;" parent="6WR1JfoL7VWsUAwsL9C9-18" vertex="1">
          <mxGeometry y="655" width="340" height="30" as="geometry" />
        </mxCell>
        <mxCell id="6WR1JfoL7VWsUAwsL9C9-77" style="edgeStyle=orthogonalEdgeStyle;rounded=0;orthogonalLoop=1;jettySize=auto;html=1;exitX=0.5;exitY=1;exitDx=0;exitDy=0;entryX=0.5;entryY=0;entryDx=0;entryDy=0;" parent="1" source="6WR1JfoL7VWsUAwsL9C9-56" target="6WR1JfoL7VWsUAwsL9C9-58" edge="1">
          <mxGeometry relative="1" as="geometry" />
        </mxCell>
        <mxCell id="6WR1JfoL7VWsUAwsL9C9-56" value="&lt;span style=&quot;font-weight: 700; text-align: left;&quot;&gt;Raw Data Input: Illumina Final Report&lt;/span&gt;" style="rounded=0;whiteSpace=wrap;html=1;" parent="1" vertex="1">
          <mxGeometry x="490" y="163" width="120" height="60" as="geometry" />
        </mxCell>
        <mxCell id="6WR1JfoL7VWsUAwsL9C9-79" style="edgeStyle=orthogonalEdgeStyle;rounded=0;orthogonalLoop=1;jettySize=auto;html=1;exitX=0.5;exitY=1;exitDx=0;exitDy=0;entryX=0.5;entryY=0;entryDx=0;entryDy=0;" parent="1" source="6WR1JfoL7VWsUAwsL9C9-58" target="6WR1JfoL7VWsUAwsL9C9-60" edge="1">
          <mxGeometry relative="1" as="geometry" />
        </mxCell>
        <mxCell id="6WR1JfoL7VWsUAwsL9C9-60" value="&lt;div style=&quot;&quot;&gt;&lt;span style=&quot;font-weight: 700;&quot;&gt;2nd Imputation:&amp;nbsp;&lt;/span&gt;&lt;/div&gt;&lt;div style=&quot;&quot;&gt;&lt;span style=&quot;font-weight: 700;&quot;&gt;All Batches imputation&lt;/span&gt;&lt;br&gt;&lt;/div&gt;" style="rounded=0;whiteSpace=wrap;html=1;" parent="1" vertex="1">
          <mxGeometry x="490" y="513" width="120" height="60" as="geometry" />
        </mxCell>
        <mxCell id="6WR1JfoL7VWsUAwsL9C9-63" style="edgeStyle=orthogonalEdgeStyle;rounded=0;orthogonalLoop=1;jettySize=auto;html=1;exitX=1;exitY=0.5;exitDx=0;exitDy=0;entryX=0;entryY=0.5;entryDx=0;entryDy=0;fillColor=#fff2cc;strokeColor=#d6b656;" parent="1" source="6WR1JfoL7VWsUAwsL9C9-62" target="6WR1JfoL7VWsUAwsL9C9-13" edge="1">
          <mxGeometry relative="1" as="geometry">
            <Array as="points">
              <mxPoint x="720" y="203" />
            </Array>
          </mxGeometry>
        </mxCell>
        <mxCell id="6WR1JfoL7VWsUAwsL9C9-64" style="edgeStyle=orthogonalEdgeStyle;rounded=0;orthogonalLoop=1;jettySize=auto;html=1;exitX=1;exitY=0.5;exitDx=0;exitDy=0;entryX=0;entryY=0.5;entryDx=0;entryDy=0;fillColor=#fff2cc;strokeColor=#d6b656;" parent="1" source="6WR1JfoL7VWsUAwsL9C9-62" target="6WR1JfoL7VWsUAwsL9C9-11" edge="1">
          <mxGeometry relative="1" as="geometry">
            <Array as="points">
              <mxPoint x="720" y="311" />
              <mxPoint x="750" y="311" />
            </Array>
          </mxGeometry>
        </mxCell>
        <mxCell id="6WR1JfoL7VWsUAwsL9C9-62" value="&lt;span style=&quot;font-weight: 700; text-align: left;&quot;&gt;Within-Batch QC&lt;/span&gt;" style="shape=step;perimeter=stepPerimeter;whiteSpace=wrap;html=1;fixedSize=1;fillColor=#fff2cc;strokeColor=#d6b656;" parent="1" vertex="1">
          <mxGeometry x="560" y="263" width="160" height="50" as="geometry" />
        </mxCell>
        <mxCell id="6WR1JfoL7VWsUAwsL9C9-82" value="&lt;b style=&quot;text-wrap: nowrap;&quot;&gt;GWAS Batches Harmonization Workflow&lt;/b&gt;" style="swimlane;whiteSpace=wrap;html=1;startSize=25;" parent="1" vertex="1">
          <mxGeometry x="480" y="125" width="550" height="685" as="geometry">
            <mxRectangle x="480" y="125" width="270" height="30" as="alternateBounds" />
          </mxGeometry>
        </mxCell>
        <mxCell id="6WR1JfoL7VWsUAwsL9C9-74" value="&lt;b&gt;variant-level:&lt;/b&gt;&lt;div&gt;&lt;div&gt;1) &lt;u&gt;remove&lt;/u&gt;&amp;nbsp;variants with&amp;nbsp;&lt;/div&gt;&lt;div&gt;imputation quality score R2 &amp;lt; 0.3&amp;nbsp;&lt;/div&gt;&lt;div&gt;(within Michigan Imputation Server)&lt;/div&gt;&lt;/div&gt;&lt;div&gt;2) snp ID update&lt;/div&gt;" style="shape=parallelogram;perimeter=parallelogramPerimeter;whiteSpace=wrap;html=1;fixedSize=1;fillColor=#f8cecc;strokeColor=#b85450;" parent="6WR1JfoL7VWsUAwsL9C9-82" vertex="1">
          <mxGeometry x="300" y="430" width="230" height="70" as="geometry" />
        </mxCell>
        <mxCell id="-PFdxbt-82Q4aY8BBACW-2" style="edgeStyle=orthogonalEdgeStyle;rounded=0;orthogonalLoop=1;jettySize=auto;html=1;exitX=1;exitY=0.5;exitDx=0;exitDy=0;fillColor=#f8cecc;strokeColor=#b85450;" edge="1" parent="6WR1JfoL7VWsUAwsL9C9-82" source="6WR1JfoL7VWsUAwsL9C9-67" target="6WR1JfoL7VWsUAwsL9C9-74">
          <mxGeometry relative="1" as="geometry">
            <Array as="points">
              <mxPoint x="240" y="465" />
            </Array>
          </mxGeometry>
        </mxCell>
        <mxCell id="-PFdxbt-82Q4aY8BBACW-3" style="edgeStyle=orthogonalEdgeStyle;rounded=0;orthogonalLoop=1;jettySize=auto;html=1;entryX=0;entryY=0.5;entryDx=0;entryDy=0;fillColor=#f8cecc;strokeColor=#b85450;" edge="1" parent="6WR1JfoL7VWsUAwsL9C9-82" source="6WR1JfoL7VWsUAwsL9C9-67" target="6WR1JfoL7VWsUAwsL9C9-54">
          <mxGeometry relative="1" as="geometry">
            <Array as="points">
              <mxPoint x="160" y="629" />
            </Array>
          </mxGeometry>
        </mxCell>
        <mxCell id="6WR1JfoL7VWsUAwsL9C9-67" value="&lt;b style=&quot;text-align: left;&quot;&gt;Final QC&lt;/b&gt;" style="shape=step;perimeter=stepPerimeter;whiteSpace=wrap;html=1;fixedSize=1;fillColor=#f8cecc;strokeColor=#b85450;" parent="6WR1JfoL7VWsUAwsL9C9-82" vertex="1">
          <mxGeometry x="80" y="465" width="160" height="50" as="geometry" />
        </mxCell>
        <mxCell id="6WR1JfoL7VWsUAwsL9C9-61" value="&lt;div style=&quot;&quot;&gt;&lt;span style=&quot;font-weight: 700; text-align: left;&quot;&gt;Harmonized&amp;nbsp;&lt;/span&gt;&lt;/div&gt;&lt;div style=&quot;&quot;&gt;&lt;span style=&quot;font-weight: 700; text-align: left;&quot;&gt;Output&lt;/span&gt;&lt;br&gt;&lt;/div&gt;" style="rounded=0;whiteSpace=wrap;html=1;" parent="6WR1JfoL7VWsUAwsL9C9-82" vertex="1">
          <mxGeometry x="10" y="615" width="120" height="60" as="geometry" />
        </mxCell>
        <mxCell id="6WR1JfoL7VWsUAwsL9C9-80" style="edgeStyle=orthogonalEdgeStyle;rounded=0;orthogonalLoop=1;jettySize=auto;html=1;entryX=0.5;entryY=0;entryDx=0;entryDy=0;" parent="6WR1JfoL7VWsUAwsL9C9-82" target="6WR1JfoL7VWsUAwsL9C9-61" edge="1">
          <mxGeometry relative="1" as="geometry">
            <mxPoint x="70" y="448" as="sourcePoint" />
          </mxGeometry>
        </mxCell>
        <mxCell id="6WR1JfoL7VWsUAwsL9C9-72" value="&lt;b&gt;sample-level:&lt;/b&gt;&lt;div&gt;&lt;div&gt;1) &lt;u&gt;remove&lt;/u&gt; samples with the same scanName across batches;&lt;span style=&quot;background-color: initial;&quot;&gt;&amp;nbsp;&lt;/span&gt;&lt;/div&gt;&lt;div&gt;2) &lt;u&gt;remove&lt;/u&gt;&amp;nbsp;samples with&amp;nbsp;&lt;/div&gt;&lt;div&gt;mis-labeled sex;&lt;/div&gt;&lt;/div&gt;" style="shape=parallelogram;perimeter=parallelogramPerimeter;whiteSpace=wrap;html=1;fixedSize=1;fillColor=#d5e8d4;strokeColor=#82b366;" parent="6WR1JfoL7VWsUAwsL9C9-82" vertex="1">
          <mxGeometry x="300" y="258" width="230" height="82.5" as="geometry" />
        </mxCell>
        <mxCell id="6WR1JfoL7VWsUAwsL9C9-55" value="&lt;b&gt;variant-level:&lt;/b&gt;&lt;div&gt;&lt;div&gt;1) &lt;u&gt;remove&lt;/u&gt; SNPs that are&amp;nbsp;&lt;/div&gt;&lt;div&gt;significant at p-value &amp;lt; 1E-05 after pseuoGWAS in Controls&lt;br&gt;&lt;/div&gt;&lt;/div&gt;" style="shape=parallelogram;perimeter=parallelogramPerimeter;whiteSpace=wrap;html=1;fixedSize=1;fillColor=#d5e8d4;strokeColor=#82b366;" parent="6WR1JfoL7VWsUAwsL9C9-82" vertex="1">
          <mxGeometry x="300" y="353" width="230" height="60" as="geometry" />
        </mxCell>
        <mxCell id="6WR1JfoL7VWsUAwsL9C9-58" value="&lt;span style=&quot;font-weight: 700; text-align: left;&quot;&gt;1st Imputation:&lt;/span&gt;&lt;div&gt;&lt;span style=&quot;font-weight: 700; text-align: left;&quot;&gt;Batch-level&lt;/span&gt;&lt;/div&gt;" style="rounded=0;whiteSpace=wrap;html=1;" parent="6WR1JfoL7VWsUAwsL9C9-82" vertex="1">
          <mxGeometry x="10" y="218" width="120" height="60" as="geometry" />
        </mxCell>
        <mxCell id="6WR1JfoL7VWsUAwsL9C9-65" value="&lt;b style=&quot;text-align: left;&quot;&gt;Cross-Batch QC&lt;/b&gt;" style="shape=step;perimeter=stepPerimeter;whiteSpace=wrap;html=1;fixedSize=1;fillColor=#d5e8d4;strokeColor=#82b366;" parent="6WR1JfoL7VWsUAwsL9C9-82" vertex="1">
          <mxGeometry x="80" y="303" width="160" height="50" as="geometry" />
        </mxCell>
        <mxCell id="6WR1JfoL7VWsUAwsL9C9-69" style="edgeStyle=orthogonalEdgeStyle;rounded=0;orthogonalLoop=1;jettySize=auto;html=1;exitX=1;exitY=0.5;exitDx=0;exitDy=0;entryX=0;entryY=0.5;entryDx=0;entryDy=0;fillColor=#d5e8d4;strokeColor=#82b366;" parent="6WR1JfoL7VWsUAwsL9C9-82" source="6WR1JfoL7VWsUAwsL9C9-65" target="6WR1JfoL7VWsUAwsL9C9-55" edge="1">
          <mxGeometry relative="1" as="geometry">
            <Array as="points">
              <mxPoint x="240" y="383" />
            </Array>
          </mxGeometry>
        </mxCell>
        <mxCell id="6WR1JfoL7VWsUAwsL9C9-73" style="edgeStyle=orthogonalEdgeStyle;rounded=0;orthogonalLoop=1;jettySize=auto;html=1;exitX=1;exitY=0.5;exitDx=0;exitDy=0;fillColor=#d5e8d4;strokeColor=#82b366;" parent="6WR1JfoL7VWsUAwsL9C9-82" source="6WR1JfoL7VWsUAwsL9C9-65" target="6WR1JfoL7VWsUAwsL9C9-72" edge="1">
          <mxGeometry relative="1" as="geometry">
            <Array as="points">
              <mxPoint x="240" y="297" />
            </Array>
          </mxGeometry>
        </mxCell>
        <mxCell id="6WR1JfoL7VWsUAwsL9C9-13" value="&lt;b&gt;sample-level:&lt;/b&gt;&lt;div&gt;&lt;div&gt;1) &lt;u&gt;remove&lt;/u&gt; samples with high&amp;nbsp;&lt;/div&gt;&lt;div&gt;missing call rate (missing.e1 &amp;gt; 5%),&amp;nbsp;&lt;/div&gt;&lt;div&gt;2) &lt;u&gt;remove&lt;/u&gt;&amp;nbsp;within-batch&amp;nbsp;&lt;/div&gt;&lt;div&gt;duplicates (IBD &amp;gt; 0.9)&lt;/div&gt;&lt;/div&gt;" style="shape=parallelogram;perimeter=parallelogramPerimeter;whiteSpace=wrap;html=1;fixedSize=1;fillColor=#fff2cc;strokeColor=#d6b656;" parent="6WR1JfoL7VWsUAwsL9C9-82" vertex="1">
          <mxGeometry x="300" y="38" width="230" height="80" as="geometry" />
        </mxCell>
        <mxCell id="6WR1JfoL7VWsUAwsL9C9-11" value="&lt;b&gt;variant-level:&lt;/b&gt;&lt;div&gt;&lt;div&gt;1) &lt;u&gt;remove&lt;/u&gt; SNPs in HLA region,&amp;nbsp;&amp;nbsp;&lt;/div&gt;&lt;div&gt;xtr (pseudoautosomal region),&lt;/div&gt;&lt;div&gt;&amp;nbsp;and gap (centromere region)&lt;/div&gt;&lt;div&gt;2) &lt;u&gt;remove&lt;/u&gt; SNPs with&amp;nbsp;&lt;span style=&quot;background-color: initial;&quot;&gt;missing.n1 = 1,&lt;/span&gt;&lt;/div&gt;&lt;div&gt;&lt;span style=&quot;background-color: initial;&quot;&gt;3) &lt;u&gt;remove&lt;/u&gt; SNPs&lt;/span&gt;&lt;span style=&quot;background-color: initial;&quot;&gt;&amp;nbsp;lack Ref/Alt info&lt;/span&gt;&lt;/div&gt;&lt;/div&gt;&lt;div&gt;4) format vcf files&lt;/div&gt;" style="shape=parallelogram;perimeter=parallelogramPerimeter;whiteSpace=wrap;html=1;fixedSize=1;fillColor=#fff2cc;strokeColor=#d6b656;" parent="6WR1JfoL7VWsUAwsL9C9-82" vertex="1">
          <mxGeometry x="300" y="128" width="230" height="115" as="geometry" />
        </mxCell>
        <mxCell id="6WR1JfoL7VWsUAwsL9C9-91" value="&lt;div&gt;&lt;b&gt;Phenotype&lt;/b&gt;&lt;/div&gt;&lt;div&gt;&lt;b&gt;Cross-Check&lt;/b&gt;&lt;/div&gt;" style="shape=document;whiteSpace=wrap;html=1;boundedLbl=1;fillColor=#b1ddf0;strokeColor=#10739e;" parent="6WR1JfoL7VWsUAwsL9C9-82" vertex="1">
          <mxGeometry x="140" y="505" width="120" height="45" as="geometry" />
        </mxCell>
        <mxCell id="6WR1JfoL7VWsUAwsL9C9-88" value="&lt;div style=&quot;&quot;&gt;&lt;b&gt;Combining available samples from Harmonization and from the APOE24 Table&lt;/b&gt;&lt;/div&gt;" style="rounded=0;whiteSpace=wrap;html=1;align=center;fillColor=#b1ddf0;strokeColor=#10739e;" parent="6WR1JfoL7VWsUAwsL9C9-82" vertex="1">
          <mxGeometry x="220" y="535" width="310" height="35" as="geometry" />
        </mxCell>
        <mxCell id="6WR1JfoL7VWsUAwsL9C9-54" value="&lt;b&gt;sample-level:&lt;/b&gt;&lt;div&gt;&lt;div&gt;1) &lt;u&gt;remove&lt;/u&gt; samples failed&amp;nbsp;&lt;/div&gt;&lt;div&gt;cross-batch IBD check&lt;/div&gt;&lt;/div&gt;&lt;div&gt;2) phenotype update&lt;/div&gt;&lt;div&gt;3) sample ID update&lt;/div&gt;" style="shape=parallelogram;perimeter=parallelogramPerimeter;whiteSpace=wrap;html=1;fixedSize=1;fillColor=#f8cecc;strokeColor=#b85450;" parent="6WR1JfoL7VWsUAwsL9C9-82" vertex="1">
          <mxGeometry x="300" y="585" width="230" height="87.5" as="geometry" />
        </mxCell>
        <mxCell id="6WR1JfoL7VWsUAwsL9C9-92" value="&lt;font style=&quot;font-size: 14px;&quot;&gt;2024/06/15&lt;/font&gt;" style="text;html=1;align=center;verticalAlign=middle;resizable=0;points=[];autosize=1;strokeColor=none;fillColor=none;" parent="1" vertex="1">
          <mxGeometry x="124" y="95" width="90" height="30" as="geometry" />
        </mxCell>
      </root>
    </mxGraphModel>
  </diagram>
</mxfile>
